solid OpenSCAD_Model
  facet normal -1 0 0
    outer loop
      vertex -7.62939e-07 -152.4 15.24
      vertex -7.62939e-07 -7.62939e-07 25.4
      vertex -7.62939e-07 -7.62939e-07 15.24
    endloop
  endfacet
  facet normal -1 -0 0
    outer loop
      vertex -7.62939e-07 -7.62939e-07 25.4
      vertex -7.62939e-07 -152.4 15.24
      vertex -7.62939e-07 -152.4 25.4
    endloop
  endfacet
  facet normal 0 0 1
    outer loop
      vertex -7.62939e-07 -7.62939e-07 15.24
      vertex -3.048 -3.048 15.24
      vertex -7.62939e-07 -152.4 15.24
    endloop
  endfacet
  facet normal -0 0 1
    outer loop
      vertex -152.4 -7.62939e-07 15.24
      vertex -3.048 -3.048 15.24
      vertex -7.62939e-07 -7.62939e-07 15.24
    endloop
  endfacet
  facet normal 0 0 1
    outer loop
      vertex -3.048 -3.048 15.24
      vertex -152.4 -7.62939e-07 15.24
      vertex -152.4 -3.048 15.24
    endloop
  endfacet
  facet normal 0 0 1
    outer loop
      vertex -7.62939e-07 -152.4 15.24
      vertex -3.048 -3.048 15.24
      vertex -3.048 -152.4 15.24
    endloop
  endfacet
  facet normal 0 -1 0
    outer loop
      vertex -152.4 -7.62939e-07 15.24
      vertex -7.62939e-07 -7.62939e-07 25.4
      vertex -152.4 -7.62939e-07 25.4
    endloop
  endfacet
  facet normal 0 -1 -0
    outer loop
      vertex -7.62939e-07 -7.62939e-07 25.4
      vertex -152.4 -7.62939e-07 15.24
      vertex -7.62939e-07 -7.62939e-07 15.24
    endloop
  endfacet
  facet normal 1 -0 0
    outer loop
      vertex -3.048 -152.4 25.4
      vertex -3.048 -3.048 15.24
      vertex -3.048 -3.048 25.4
    endloop
  endfacet
  facet normal 1 0 0
    outer loop
      vertex -3.048 -3.048 15.24
      vertex -3.048 -152.4 25.4
      vertex -3.048 -152.4 15.24
    endloop
  endfacet
  facet normal 0 1 -0
    outer loop
      vertex -3.048 -3.048 15.24
      vertex -152.4 -3.048 25.4
      vertex -3.048 -3.048 25.4
    endloop
  endfacet
  facet normal 0 1 0
    outer loop
      vertex -152.4 -3.048 25.4
      vertex -3.048 -3.048 15.24
      vertex -152.4 -3.048 15.24
    endloop
  endfacet
  facet normal 0 0 1
    outer loop
      vertex 2.54 2.54 25.4
      vertex -7.62939e-07 -7.62939e-07 25.4
      vertex 2.54 -152.4 25.4
    endloop
  endfacet
  facet normal -0 0 1
    outer loop
      vertex -152.4 2.54 25.4
      vertex -7.62939e-07 -7.62939e-07 25.4
      vertex 2.54 2.54 25.4
    endloop
  endfacet
  facet normal 0 0 1
    outer loop
      vertex -7.62939e-07 -7.62939e-07 25.4
      vertex -152.4 2.54 25.4
      vertex -152.4 -7.62939e-07 25.4
    endloop
  endfacet
  facet normal 0 0 1
    outer loop
      vertex 2.54 -152.4 25.4
      vertex -7.62939e-07 -7.62939e-07 25.4
      vertex -7.62939e-07 -152.4 25.4
    endloop
  endfacet
  facet normal 0 0 1
    outer loop
      vertex -3.048 -3.048 25.4
      vertex -5.588 -5.588 25.4
      vertex -3.048 -152.4 25.4
    endloop
  endfacet
  facet normal -0 0 1
    outer loop
      vertex -152.4 -3.048 25.4
      vertex -5.588 -5.588 25.4
      vertex -3.048 -3.048 25.4
    endloop
  endfacet
  facet normal 0 0 1
    outer loop
      vertex -5.588 -5.588 25.4
      vertex -152.4 -3.048 25.4
      vertex -152.4 -5.588 25.4
    endloop
  endfacet
  facet normal 0 0 1
    outer loop
      vertex -3.048 -152.4 25.4
      vertex -5.588 -5.588 25.4
      vertex -5.588 -152.4 25.4
    endloop
  endfacet
  facet normal 1 -0 0
    outer loop
      vertex 2.54 -152.4 25.4
      vertex 2.54 2.54 7.62
      vertex 2.54 2.54 25.4
    endloop
  endfacet
  facet normal 1 0 0
    outer loop
      vertex 2.54 2.54 7.62
      vertex 2.54 -152.4 25.4
      vertex 2.54 -152.4 7.62
    endloop
  endfacet
  facet normal 0 1 -0
    outer loop
      vertex 2.54 2.54 7.62
      vertex -152.4 2.54 25.4
      vertex 2.54 2.54 25.4
    endloop
  endfacet
  facet normal 0 1 0
    outer loop
      vertex -152.4 2.54 25.4
      vertex 2.54 2.54 7.62
      vertex -152.4 2.54 7.62
    endloop
  endfacet
  facet normal 0 0 -1
    outer loop
      vertex -7.62939e-07 -7.62939e-07 7.62
      vertex 2.54 -152.4 7.62
      vertex -7.62939e-07 -152.4 7.62
    endloop
  endfacet
  facet normal 0 0 -1
    outer loop
      vertex 2.54 -152.4 7.62
      vertex -7.62939e-07 -7.62939e-07 7.62
      vertex 2.54 2.54 7.62
    endloop
  endfacet
  facet normal 0 0 -1
    outer loop
      vertex -152.4 2.54 7.62
      vertex -7.62939e-07 -7.62939e-07 7.62
      vertex -152.4 -7.62939e-07 7.62
    endloop
  endfacet
  facet normal 0 0 -1
    outer loop
      vertex -7.62939e-07 -7.62939e-07 7.62
      vertex -152.4 2.54 7.62
      vertex 2.54 2.54 7.62
    endloop
  endfacet
  facet normal -1 0 0
    outer loop
      vertex -5.588 -152.4 12.7
      vertex -5.588 -5.588 25.4
      vertex -5.588 -5.588 12.7
    endloop
  endfacet
  facet normal -1 -0 0
    outer loop
      vertex -5.588 -5.588 25.4
      vertex -5.588 -152.4 12.7
      vertex -5.588 -152.4 25.4
    endloop
  endfacet
  facet normal 0 -1 0
    outer loop
      vertex -152.4 -5.588 12.7
      vertex -5.588 -5.588 25.4
      vertex -152.4 -5.588 25.4
    endloop
  endfacet
  facet normal 0 -1 -0
    outer loop
      vertex -5.588 -5.588 25.4
      vertex -152.4 -5.588 12.7
      vertex -5.588 -5.588 12.7
    endloop
  endfacet
  facet normal -1 0 0
    outer loop
      vertex -152.4 -7.62939e-07 12.7
      vertex -152.4 -3.048 15.24
      vertex -152.4 -7.62939e-07 15.24
    endloop
  endfacet
  facet normal -1 0 0
    outer loop
      vertex -152.4 -5.588 12.7
      vertex -152.4 -3.048 15.24
      vertex -152.4 -7.62939e-07 12.7
    endloop
  endfacet
  facet normal -1 0 0
    outer loop
      vertex -152.4 -5.588 25.4
      vertex -152.4 -3.048 15.24
      vertex -152.4 -5.588 12.7
    endloop
  endfacet
  facet normal -1 0 0
    outer loop
      vertex -152.4 -3.048 15.24
      vertex -152.4 -5.588 25.4
      vertex -152.4 -3.048 25.4
    endloop
  endfacet
  facet normal -1 0 0
    outer loop
      vertex -152.4 -7.62939e-07 12.7
      vertex -152.4 2.54 7.62
      vertex -152.4 -7.62939e-07 7.62
    endloop
  endfacet
  facet normal -1 0 0
    outer loop
      vertex -152.4 -7.62939e-07 15.24
      vertex -152.4 2.54 7.62
      vertex -152.4 -7.62939e-07 12.7
    endloop
  endfacet
  facet normal -1 0 0
    outer loop
      vertex -152.4 2.54 7.62
      vertex -152.4 -7.62939e-07 15.24
      vertex -152.4 2.54 25.4
    endloop
  endfacet
  facet normal -1 -0 0
    outer loop
      vertex -152.4 2.54 25.4
      vertex -152.4 -7.62939e-07 15.24
      vertex -152.4 -7.62939e-07 25.4
    endloop
  endfacet
  facet normal 0 -1 0
    outer loop
      vertex -5.588 -152.4 25.4
      vertex -3.048 -152.4 15.24
      vertex -3.048 -152.4 25.4
    endloop
  endfacet
  facet normal 0 -1 0
    outer loop
      vertex -7.62939e-07 -152.4 12.7
      vertex -3.048 -152.4 15.24
      vertex -5.588 -152.4 12.7
    endloop
  endfacet
  facet normal 0 -1 0
    outer loop
      vertex -5.588 -152.4 12.7
      vertex -3.048 -152.4 15.24
      vertex -5.588 -152.4 25.4
    endloop
  endfacet
  facet normal 0 -1 0
    outer loop
      vertex -7.62939e-07 -152.4 15.24
      vertex 2.54 -152.4 25.4
      vertex -7.62939e-07 -152.4 25.4
    endloop
  endfacet
  facet normal 0 -1 0
    outer loop
      vertex -3.048 -152.4 15.24
      vertex -7.62939e-07 -152.4 12.7
      vertex -7.62939e-07 -152.4 15.24
    endloop
  endfacet
  facet normal 0 -1 0
    outer loop
      vertex 2.54 -152.4 7.62
      vertex -7.62939e-07 -152.4 15.24
      vertex -7.62939e-07 -152.4 12.7
    endloop
  endfacet
  facet normal 0 -1 0
    outer loop
      vertex 2.54 -152.4 7.62
      vertex -7.62939e-07 -152.4 12.7
      vertex -7.62939e-07 -152.4 7.62
    endloop
  endfacet
  facet normal 0 -1 0
    outer loop
      vertex -7.62939e-07 -152.4 15.24
      vertex 2.54 -152.4 7.62
      vertex 2.54 -152.4 25.4
    endloop
  endfacet
  facet normal 0 0 -1
    outer loop
      vertex -5.588 -5.588 12.7
      vertex -7.62939e-07 -152.4 12.7
      vertex -5.588 -152.4 12.7
    endloop
  endfacet
  facet normal 0 0 -1
    outer loop
      vertex -7.62939e-07 -152.4 12.7
      vertex -5.588 -5.588 12.7
      vertex -7.62939e-07 -7.62939e-07 12.7
    endloop
  endfacet
  facet normal 0 0 -1
    outer loop
      vertex -152.4 -7.62939e-07 12.7
      vertex -5.588 -5.588 12.7
      vertex -152.4 -5.588 12.7
    endloop
  endfacet
  facet normal 0 0 -1
    outer loop
      vertex -5.588 -5.588 12.7
      vertex -152.4 -7.62939e-07 12.7
      vertex -7.62939e-07 -7.62939e-07 12.7
    endloop
  endfacet
  facet normal -1 0 0
    outer loop
      vertex -7.62939e-07 -152.4 7.62
      vertex -7.62939e-07 -7.62939e-07 12.7
      vertex -7.62939e-07 -7.62939e-07 7.62
    endloop
  endfacet
  facet normal -1 -0 0
    outer loop
      vertex -7.62939e-07 -7.62939e-07 12.7
      vertex -7.62939e-07 -152.4 7.62
      vertex -7.62939e-07 -152.4 12.7
    endloop
  endfacet
  facet normal 0 -1 0
    outer loop
      vertex -152.4 -7.62939e-07 7.62
      vertex -7.62939e-07 -7.62939e-07 12.7
      vertex -152.4 -7.62939e-07 12.7
    endloop
  endfacet
  facet normal 0 -1 -0
    outer loop
      vertex -7.62939e-07 -7.62939e-07 12.7
      vertex -152.4 -7.62939e-07 7.62
      vertex -7.62939e-07 -7.62939e-07 7.62
    endloop
  endfacet
endsolid OpenSCAD_Model
