solid OpenSCAD_Model
  facet normal -1 0 0
    outer loop
      vertex -7.62939e-07 -12.7 15.24
      vertex -7.62939e-07 -7.62939e-07 25.4
      vertex -7.62939e-07 -7.62939e-07 15.24
    endloop
  endfacet
  facet normal -1 -0 0
    outer loop
      vertex -7.62939e-07 -7.62939e-07 25.4
      vertex -7.62939e-07 -12.7 15.24
      vertex -7.62939e-07 -12.7 25.4
    endloop
  endfacet
  facet normal 0 0 1
    outer loop
      vertex -7.62939e-07 -7.62939e-07 15.24
      vertex -3.048 -3.048 15.24
      vertex -7.62939e-07 -12.7 15.24
    endloop
  endfacet
  facet normal -0 0 1
    outer loop
      vertex -12.7 -7.62939e-07 15.24
      vertex -3.048 -3.048 15.24
      vertex -7.62939e-07 -7.62939e-07 15.24
    endloop
  endfacet
  facet normal 0 0 1
    outer loop
      vertex -3.048 -3.048 15.24
      vertex -12.7 -7.62939e-07 15.24
      vertex -12.7 -3.048 15.24
    endloop
  endfacet
  facet normal 0 0 1
    outer loop
      vertex -7.62939e-07 -12.7 15.24
      vertex -3.048 -3.048 15.24
      vertex -3.048 -12.7 15.24
    endloop
  endfacet
  facet normal 0 -1 0
    outer loop
      vertex -12.7 -7.62939e-07 15.24
      vertex -7.62939e-07 -7.62939e-07 25.4
      vertex -12.7 -7.62939e-07 25.4
    endloop
  endfacet
  facet normal 0 -1 -0
    outer loop
      vertex -7.62939e-07 -7.62939e-07 25.4
      vertex -12.7 -7.62939e-07 15.24
      vertex -7.62939e-07 -7.62939e-07 15.24
    endloop
  endfacet
  facet normal 1 -0 0
    outer loop
      vertex -3.048 -12.7 25.4
      vertex -3.048 -3.048 15.24
      vertex -3.048 -3.048 25.4
    endloop
  endfacet
  facet normal 1 0 0
    outer loop
      vertex -3.048 -3.048 15.24
      vertex -3.048 -12.7 25.4
      vertex -3.048 -12.7 15.24
    endloop
  endfacet
  facet normal 0 1 -0
    outer loop
      vertex -3.048 -3.048 15.24
      vertex -12.7 -3.048 25.4
      vertex -3.048 -3.048 25.4
    endloop
  endfacet
  facet normal 0 1 0
    outer loop
      vertex -12.7 -3.048 25.4
      vertex -3.048 -3.048 15.24
      vertex -12.7 -3.048 15.24
    endloop
  endfacet
  facet normal 0 0 1
    outer loop
      vertex 2.54 2.54 25.4
      vertex -7.62939e-07 -7.62939e-07 25.4
      vertex 2.54 -12.7 25.4
    endloop
  endfacet
  facet normal -0 0 1
    outer loop
      vertex -12.7 2.54 25.4
      vertex -7.62939e-07 -7.62939e-07 25.4
      vertex 2.54 2.54 25.4
    endloop
  endfacet
  facet normal 0 0 1
    outer loop
      vertex -7.62939e-07 -7.62939e-07 25.4
      vertex -12.7 2.54 25.4
      vertex -12.7 -7.62939e-07 25.4
    endloop
  endfacet
  facet normal 0 0 1
    outer loop
      vertex 2.54 -12.7 25.4
      vertex -7.62939e-07 -7.62939e-07 25.4
      vertex -7.62939e-07 -12.7 25.4
    endloop
  endfacet
  facet normal 0 0 1
    outer loop
      vertex -3.048 -3.048 25.4
      vertex -5.588 -5.588 25.4
      vertex -3.048 -12.7 25.4
    endloop
  endfacet
  facet normal -0 0 1
    outer loop
      vertex -12.7 -3.048 25.4
      vertex -5.588 -5.588 25.4
      vertex -3.048 -3.048 25.4
    endloop
  endfacet
  facet normal 0 0 1
    outer loop
      vertex -5.588 -5.588 25.4
      vertex -12.7 -3.048 25.4
      vertex -12.7 -5.588 25.4
    endloop
  endfacet
  facet normal 0 0 1
    outer loop
      vertex -3.048 -12.7 25.4
      vertex -5.588 -5.588 25.4
      vertex -5.588 -12.7 25.4
    endloop
  endfacet
  facet normal 1 -0 0
    outer loop
      vertex 2.54 -12.7 25.4
      vertex 2.54 2.54 12.7
      vertex 2.54 2.54 25.4
    endloop
  endfacet
  facet normal 1 0 0
    outer loop
      vertex 2.54 2.54 12.7
      vertex 2.54 -12.7 25.4
      vertex 2.54 -12.7 12.7
    endloop
  endfacet
  facet normal 0 0 -1
    outer loop
      vertex -5.588 -5.588 12.7
      vertex 2.54 -12.7 12.7
      vertex -5.588 -12.7 12.7
    endloop
  endfacet
  facet normal 0 0 -1
    outer loop
      vertex 2.54 -12.7 12.7
      vertex -5.588 -5.588 12.7
      vertex 2.54 2.54 12.7
    endloop
  endfacet
  facet normal 0 0 -1
    outer loop
      vertex -12.7 2.54 12.7
      vertex -5.588 -5.588 12.7
      vertex -12.7 -5.588 12.7
    endloop
  endfacet
  facet normal 0 0 -1
    outer loop
      vertex -5.588 -5.588 12.7
      vertex -12.7 2.54 12.7
      vertex 2.54 2.54 12.7
    endloop
  endfacet
  facet normal 0 1 -0
    outer loop
      vertex 2.54 2.54 12.7
      vertex -12.7 2.54 25.4
      vertex 2.54 2.54 25.4
    endloop
  endfacet
  facet normal 0 1 0
    outer loop
      vertex -12.7 2.54 25.4
      vertex 2.54 2.54 12.7
      vertex -12.7 2.54 12.7
    endloop
  endfacet
  facet normal -1 0 0
    outer loop
      vertex -5.588 -12.7 12.7
      vertex -5.588 -5.588 25.4
      vertex -5.588 -5.588 12.7
    endloop
  endfacet
  facet normal -1 -0 0
    outer loop
      vertex -5.588 -5.588 25.4
      vertex -5.588 -12.7 12.7
      vertex -5.588 -12.7 25.4
    endloop
  endfacet
  facet normal 0 -1 0
    outer loop
      vertex -12.7 -5.588 12.7
      vertex -5.588 -5.588 25.4
      vertex -12.7 -5.588 25.4
    endloop
  endfacet
  facet normal 0 -1 -0
    outer loop
      vertex -5.588 -5.588 25.4
      vertex -12.7 -5.588 12.7
      vertex -5.588 -5.588 12.7
    endloop
  endfacet
  facet normal -1 0 0
    outer loop
      vertex -12.7 2.54 12.7
      vertex -12.7 -7.62939e-07 15.24
      vertex -12.7 2.54 25.4
    endloop
  endfacet
  facet normal -1 0 0
    outer loop
      vertex -12.7 2.54 12.7
      vertex -12.7 -3.048 15.24
      vertex -12.7 -7.62939e-07 15.24
    endloop
  endfacet
  facet normal -1 0 0
    outer loop
      vertex -12.7 -5.588 12.7
      vertex -12.7 -3.048 15.24
      vertex -12.7 2.54 12.7
    endloop
  endfacet
  facet normal -1 0 0
    outer loop
      vertex -12.7 -5.588 25.4
      vertex -12.7 -3.048 15.24
      vertex -12.7 -5.588 12.7
    endloop
  endfacet
  facet normal -1 0 0
    outer loop
      vertex -12.7 -3.048 15.24
      vertex -12.7 -5.588 25.4
      vertex -12.7 -3.048 25.4
    endloop
  endfacet
  facet normal -1 -0 0
    outer loop
      vertex -12.7 2.54 25.4
      vertex -12.7 -7.62939e-07 15.24
      vertex -12.7 -7.62939e-07 25.4
    endloop
  endfacet
  facet normal 0 -1 0
    outer loop
      vertex -5.588 -12.7 25.4
      vertex -3.048 -12.7 15.24
      vertex -3.048 -12.7 25.4
    endloop
  endfacet
  facet normal 0 -1 -0
    outer loop
      vertex -3.048 -12.7 15.24
      vertex -5.588 -12.7 12.7
      vertex -7.62939e-07 -12.7 15.24
    endloop
  endfacet
  facet normal 0 -1 0
    outer loop
      vertex -5.588 -12.7 12.7
      vertex -3.048 -12.7 15.24
      vertex -5.588 -12.7 25.4
    endloop
  endfacet
  facet normal 0 -1 0
    outer loop
      vertex -7.62939e-07 -12.7 15.24
      vertex 2.54 -12.7 25.4
      vertex -7.62939e-07 -12.7 25.4
    endloop
  endfacet
  facet normal 0 -1 0
    outer loop
      vertex -7.62939e-07 -12.7 15.24
      vertex 2.54 -12.7 12.7
      vertex 2.54 -12.7 25.4
    endloop
  endfacet
  facet normal 0 -1 0
    outer loop
      vertex 2.54 -12.7 12.7
      vertex -7.62939e-07 -12.7 15.24
      vertex -5.588 -12.7 12.7
    endloop
  endfacet
endsolid OpenSCAD_Model
